<svg xmlns="http://www.w3.org/2000/svg" viewBox="0 0 256 256">
  <defs>
    <linearGradient id="g-brass" x1="0%" y1="0%" x2="100%" y2="100%">
      <stop offset="0%"   stop-color="#e8c96a"/>
      <stop offset="40%"  stop-color="#c9a84c"/>
      <stop offset="100%" stop-color="#7a5e1a"/>
    </linearGradient>
    <radialGradient id="g-bg" cx="38%" cy="32%" r="68%">
      <stop offset="0%"   stop-color="#243560"/>
      <stop offset="100%" stop-color="#0d1624"/>
    </radialGradient>
    <linearGradient id="g-sheen" x1="0%" y1="0%" x2="0%" y2="100%">
      <stop offset="0%"   stop-color="#ffffff" stop-opacity="0.10"/>
      <stop offset="100%" stop-color="#ffffff" stop-opacity="0"/>
    </linearGradient>
    <linearGradient id="g-vignette" x1="0%" y1="0%" x2="0%" y2="100%">
      <stop offset="0%"   stop-color="#000000" stop-opacity="0"/>
      <stop offset="100%" stop-color="#000000" stop-opacity="0.30"/>
    </linearGradient>
    <clipPath id="rsq">
      <rect x="1.25" y="1.25" width="253.5" height="253.5" rx="53"/>
    </clipPath>
  </defs>

  <g clip-path="url(#rsq)">
    <rect x="0" y="0" width="256" height="256" fill="url(#g-bg)"/>

    <g transform="translate(128,128)">
      <g transform="translate(2.5,3) scale(8.5) translate(-12,-12)">
        <path fill="#3a2600" d="M18.36 13.36c-.4.4-.83.75-1.29 1.07l-2.63-5.7c.35-.49.56-1.09.56-1.73 0-1.3-.84-2.4-2-2.82V2h-2v2.18C9.84 4.59 9 5.69 9 7c0 .65.21 1.24.56 1.73l-2.63 5.7c-.46-.31-.89-.67-1.29-1.07l-.71-.71-1.41 1.41.71.71c.57.57 1.19 1.06 1.86 1.49l-2.22 4.81 1.82.84 2.18-4.73c1.32.53 2.71.81 4.14.81s2.82-.27 4.14-.81c1.37-.55 2.59-1.37 3.64-2.42l.71-.71-1.41-1.41-.71.71ZM12 6c.55 0 1 .45 1 1s-.45 1-1 1-1-.45-1-1 .45-1 1-1m-3.3 9.37 2.53-5.48c.25.07.5.11.77.11s.52-.05.77-.11l2.53 5.48c-2.11.83-4.49.83-6.6 0m8.28 3.64 1.34 2.91 1.82-.84-1.38-2.99c-.57.35-1.16.66-1.78.92"/>
      </g>
      <g transform="scale(8.5) translate(-12,-12)">
        <path fill="url(#g-brass)" d="M18.36 13.36c-.4.4-.83.75-1.29 1.07l-2.63-5.7c.35-.49.56-1.09.56-1.73 0-1.3-.84-2.4-2-2.82V2h-2v2.18C9.84 4.59 9 5.69 9 7c0 .65.21 1.24.56 1.73l-2.63 5.7c-.46-.31-.89-.67-1.29-1.07l-.71-.71-1.41 1.41.71.71c.57.57 1.19 1.06 1.86 1.49l-2.22 4.81 1.82.84 2.18-4.73c1.32.53 2.71.81 4.14.81s2.82-.27 4.14-.81c1.37-.55 2.59-1.37 3.64-2.42l.71-.71-1.41-1.41-.71.71ZM12 6c.55 0 1 .45 1 1s-.45 1-1 1-1-.45-1-1 .45-1 1-1m-3.3 9.37 2.53-5.48c.25.07.5.11.77.11s.52-.05.77-.11l2.53 5.48c-2.11.83-4.49.83-6.6 0m8.28 3.64 1.34 2.91 1.82-.84-1.38-2.99c-.57.35-1.16.66-1.78.92"/>
      </g>
      <g transform="translate(-1,-1.5) scale(8.5) translate(-12,-12)" opacity="0.22">
        <path fill="#fff8d0" d="M18.36 13.36c-.4.4-.83.75-1.29 1.07l-2.63-5.7c.35-.49.56-1.09.56-1.73 0-1.3-.84-2.4-2-2.82V2h-2v2.18C9.84 4.59 9 5.69 9 7c0 .65.21 1.24.56 1.73l-2.63 5.7c-.46-.31-.89-.67-1.29-1.07l-.71-.71-1.41 1.41.71.71c.57.57 1.19 1.06 1.86 1.49l-2.22 4.81 1.82.84 2.18-4.73c1.32.53 2.71.81 4.14.81s2.82-.27 4.14-.81c1.37-.55 2.59-1.37 3.64-2.42l.71-.71-1.41-1.41-.71.71ZM12 6c.55 0 1 .45 1 1s-.45 1-1 1-1-.45-1-1 .45-1 1-1m-3.3 9.37 2.53-5.48c.25.07.5.11.77.11s.52-.05.77-.11l2.53 5.48c-2.11.83-4.49.83-6.6 0m8.28 3.64 1.34 2.91 1.82-.84-1.38-2.99c-.57.35-1.16.66-1.78.92"/>
      </g>
    </g>

    <rect x="0" y="0"   width="256" height="100" fill="url(#g-sheen)"/>
    <rect x="0" y="156" width="256" height="100" fill="url(#g-vignette)"/>
  </g>

  <rect x="1.25" y="1.25" width="253.5" height="253.5" rx="53"
        fill="none" stroke="#3a527a" stroke-width="2.5"/>
</svg>
